<svg width="256" height="256" xmlns="http://www.w3.org/2000/svg" enable-background="new 0 0 256 256">
 <g>
  <title>Layer 1</title>
  <g id="svg_1" transform="rotate(-130.801 128.001 118)">
   <g id="svg_2">
    <path d="m204.683,50.217c8.654,37.581 -20.531,55.704 -20.531,55.704c-5.324,-74.369 -57.841,-85.653 -57.841,-85.653c16.879,23.596 -0.214,49.522 -0.214,49.522c-19.902,-28.543 -45.583,-18.434 -54.031,-17.782c-39.079,3.015 -50.816,-41.073 -50.816,-41.073c-5.073,43.542 22.726,80.053 58.848,104.855c0,0 -25.919,17.086 -49.522,0.214c0,0 11.291,52.509 85.66,57.833c0,0 -18.123,29.185 -55.704,20.531c0,0 59.641,49.063 121.809,23.208c10.166,-4.228 19.314,-10.576 27.1,-18.362l0.083,-0.083c7.785,-7.785 14.132,-16.931 18.36,-27.096c25.864,-62.174 -23.201,-121.818 -23.201,-121.818z" fill="#ff4a73" id="svg_3"/>
    <g fill="#f973a3" id="svg_4">
     <path d="m21.248,10.937s4.28,16.06 16.26,28.13c6.53,31.17 29.55,57.47 57.59,76.72c0,0 -15.67,10.33 -33.74,7c10.94,-1.86 18.74,-7 18.74,-7c-36.12,-24.8 -63.92,-61.31 -58.85,-104.85z" id="svg_5"/>
     <path d="m116.238,173.837c-74.37,-5.32 -85.66,-57.83 -85.66,-57.83c5.8,4.14 11.73,6.23 17.39,7.04c6.07,14.5 25.9,46.69 83.27,50.79c0,0 -16.19,26.08 -49.71,21.62c23.36,-3.34 34.71,-21.62 34.71,-21.62z" id="svg_6"/>
     <path d="m151.788,224.827c-49.81,3.63 -91.26,-30.46 -91.26,-30.46c6.17,1.42 11.82,1.82 16.95,1.5c7.72,5.8 37.53,26.39 74.31,28.96z" id="svg_7"/>
    </g>
    <path d="m131.408,29.867c-1.17,-3.2 -2.83,-6.42 -5.1,-9.6c0,0 45.97,9.87 56.26,72.04c-6.19,9.13 -13.41,13.61 -13.41,13.61c-3.11,-43.43 -22.31,-65.34 -37.75,-76.05z" fill="#ea2a6a" id="svg_8"/>
    <path d="m227.888,172.037c-4.23,10.16 -10.58,19.31 -18.36,27.09l-0.09,0.09c-7.78,7.78 -16.93,14.13 -27.1,18.36c-15.65,6.51 -31.13,8.27 -45.55,7.25c9.94,-0.72 20.21,-2.95 30.55,-7.25c10.17,-4.23 19.32,-10.58 27.1,-18.36l0.09,-0.09c7.78,-7.78 14.13,-16.93 18.36,-27.09c15.6,-37.51 3.94,-74.09 -7.77,-97.21c1.53,-7 1.74,-15.19 -0.43,-24.61c0,0 49.06,59.64 23.2,121.82z" fill="#ea2a6a" id="svg_9"/>
    <path d="m225.039,161.739c0,11.66 -3.781,22.425 -10.181,31.163c-3.218,4.4 -7.104,8.273 -11.491,11.491l-0.007,0.007c-8.012,5.858 -17.722,9.512 -28.241,10.075c-30.747,1.598 -55.7,-22.819 -55.7,-52.728c0,-11.519 3.725,-22.312 10.153,-31.12c0.007,-0.007 0.007,-0.007 0.014,-0.014c3.204,-4.386 7.076,-8.273 11.497,-11.512c0,0 12.371,-10.174 31.149,-10.167c29.157,0.006 52.8,23.649 52.807,52.805z" fill="#44c7b6" id="svg_10"/>
    <path d="m186.674,202.92c10.491,-0.563 20.186,-4.203 28.184,-10.019c-9.083,12.406 -23.453,20.693 -39.738,21.573c-30.747,1.598 -55.7,-22.819 -55.7,-52.728c0,-17.264 8.372,-32.916 21.664,-42.646c0.014,0 0.028,-0.014 0.035,-0.021c-5.844,7.998 -9.505,17.701 -10.061,28.227c-0.063,0.95 -0.091,1.922 -0.092,2.894c0.007,29.17 23.643,52.806 52.806,52.806c0.973,-0.001 1.944,-0.03 2.902,-0.086z" fill="#4bdbc3" id="svg_11"/>
    <path d="m225.039,161.739c0,11.66 -3.781,22.425 -10.181,31.163c-3.218,4.4 -7.104,8.273 -11.491,11.491c5.837,-8.005 9.477,-17.701 10.047,-28.212c0.042,-0.958 0.07,-1.915 0.07,-2.887c0,-29.163 -23.636,-52.799 -52.806,-52.806c-0.972,0 -1.929,0.028 -2.88,0.077c-10.526,0.556 -20.214,4.217 -28.212,10.047c3.204,-4.386 7.076,-8.273 11.497,-11.512c0,0 12.371,-10.174 31.149,-10.167c29.157,0.007 52.8,23.65 52.807,52.806z" fill="#3bb2a0" id="svg_12"/>
   </g>
   <g fill="#5f266d" id="svg_13">
    <path d="m231.578,173.572c10.984,-26.405 10.335,-56.573 -1.878,-87.241c-9.159,-22.998 -21.41,-38.026 -21.927,-38.655c-2.671,-3.249 -7.931,-0.662 -6.987,3.438c5.673,24.637 -5.98,40.095 -13.354,47.074c-4.213,-35.122 -19.252,-55.18 -31.556,-65.988c-14.411,-12.658 -28.146,-15.719 -28.724,-15.843c-3.551,-0.77 -6.222,3.264 -4.094,6.238c10.969,15.333 6.106,31.732 2.431,39.852c-20.818,-24.45 -46.195,-15.008 -53.73,-14.427c-35.241,2.724 -46.195,-36.45 -46.643,-38.113c-1.129,-4.248 -7.33,-3.796 -7.838,0.566c-5.865,50.334 29.811,86.091 55.186,104.793c-8.244,3.613 -24.539,8.222 -39.561,-2.516c-2.965,-2.12 -7.003,0.528 -6.237,4.095c0.124,0.578 3.187,14.311 15.847,28.72c10.809,12.302 30.872,27.337 65.99,31.552c-6.982,7.377 -22.441,19.024 -47.073,13.354c-4.103,-0.941 -6.687,4.314 -3.438,6.987c19.087,15.705 53.449,31.593 86.271,31.593c46.292,0 75.962,-28.186 87.315,-55.479zm-52.421,36.483c-0.802,-30.1 -25.119,-54.424 -55.216,-55.237c3.04,-20.962 19.329,-38.181 41.36,-41.379c0.804,30.107 25.135,54.435 55.244,55.234c-3.082,21.654 -20.273,38.389 -41.388,41.382zm-7.988,0.466c-26.17,-0.568 -47.172,-21.542 -47.722,-47.716c26.069,0.559 47.16,21.647 47.722,47.716zm39.082,-145.159c3.808,6.229 8.275,14.491 12.104,24.151c9.369,23.636 11.514,46.097 6.431,66.975c-2.144,-23.215 -18.309,-42.429 -39.93,-49.065c6.061,-4.804 20.719,-18.785 21.395,-42.061zm10.761,95.323c-26.073,-0.558 -47.166,-21.652 -47.723,-47.725c26.067,0.565 47.16,21.659 47.723,47.725zm-172.197,-20.07c-5.138,-5.777 -8.545,-11.472 -10.742,-16.005c22.284,8.677 43.223,-4.818 44.227,-5.48c2.368,-1.561 2.402,-5.031 0.063,-6.637c-20.866,-14.327 -53.448,-42.861 -57.336,-83.191c1.11,1.86 2.358,3.769 3.753,5.669c12.132,16.517 29.211,23.818 48.636,20.25c11.154,-2.051 29.823,-5.483 45.4,16.857c1.676,2.405 5.117,2.196 6.621,-0.086c0.663,-1.005 14.164,-21.947 5.484,-44.228c29.348,14.219 42.663,44.694 45.178,77.727c-37.8,-5.271 -69.44,27.331 -64.085,64.311c-29.307,-2.193 -51.918,-12.006 -67.199,-29.187zm26.862,59.321c23.566,-0.687 37.612,-15.711 42.244,-21.625c6.649,21.715 25.735,38.025 49.435,40.022c-31.495,7.871 -64.429,-1.74 -91.679,-18.397z" id="svg_14"/>
    <path d="m90.576,93.875c-10.126,-7.388 -16.523,-16.527 -16.656,-16.719c-1.252,-1.819 -3.741,-2.28 -5.562,-1.029c-1.82,1.252 -2.282,3.742 -1.03,5.563c0.289,0.42 7.203,10.381 18.532,18.648c4.284,3.126 8.967,-3.36 4.716,-6.463z" id="svg_15"/>
    <path d="m107.594,102.209c-1.608,-0.402 -3.243,-0.923 -4.86,-1.549c-2.059,-0.801 -4.377,0.224 -5.175,2.284s0.224,4.377 2.284,5.175c1.335,0.518 5.453,1.972 6.784,1.972c4.677,0 5.525,-6.742 0.967,-7.882z" id="svg_16"/>
   </g>
  </g>
 </g>

</svg>